<svg width="26" height="22" viewBox="0 0 26 22" fill="none" xmlns="http://www.w3.org/2000/svg">
<path d="M12.7499 22C19.7915 22 25.4999 17.0751 25.4999 11C25.4999 4.92487 19.7915 0 12.7499 0C5.70834 0 0 4.92487 0 11C0 17.0751 5.70834 22 12.7499 22Z" fill="#0B0E11"/>
<path d="M9.17282 9.73329L12.7494 6.64768L16.3277 9.73491L18.4088 7.93938L12.7494 3.05664L7.09172 7.9378L9.17282 9.73329ZM5.62218 9.20551L7.70326 11.001L5.62207 12.7965L3.54102 11.0011L5.62218 9.20551ZM9.17282 12.2689L12.7494 15.3545L16.3276 12.2674L18.4099 14.0619L18.4088 14.0629L12.7494 18.9456L7.09164 14.0645L7.08874 14.062L9.17282 12.2689ZM21.9578 11.0013L19.8767 12.7967L17.7957 11.0013L19.8767 9.20583L21.9578 11.0013Z" fill="#F0B90B"/>
<path d="M14.8604 3.74001H14.8613L12.7495 1.91797L10.6367 3.74088L10.6396 3.74342L12.7495 5.56386L14.8623 3.74088L14.8604 3.74001Z" fill="#F0B90B"/>
</svg>
