<svg width="450" height="386" viewBox="0 0 450 386" fill="none" xmlns="http://www.w3.org/2000/svg">
<path d="M409.333 352.379C400.712 362.47 390.835 371.183 379.991 378.26C379.742 378.428 379.489 378.584 379.236 378.747L361.681 361.76C361.865 361.572 362.069 361.362 362.289 361.131C375.369 347.552 440.305 252.609 444.632 229.488C444.334 231.415 448.537 306.951 409.333 352.379Z" fill="#F0F0F0"/>
<path d="M383.378 381.535C383.046 381.622 382.709 381.703 382.37 381.777L369.2 369.032C369.457 368.934 369.758 368.818 370.102 368.688C375.753 366.501 392.583 359.897 409.331 352.375C427.328 344.29 445.238 335.154 449.09 329.302C448.264 330.662 422.811 371.895 383.378 381.535Z" fill="#F0F0F0"/>
<path d="M409.088 101.091H407.213V44.9177C407.213 40.6482 406.444 36.4205 404.949 32.476C403.455 28.5315 401.264 24.9475 398.503 21.9285C395.742 18.9095 392.464 16.5147 388.856 14.8808C385.248 13.2469 381.381 12.406 377.476 12.406H268.621C264.716 12.406 260.849 13.2469 257.241 14.8808C253.633 16.5146 250.355 18.9094 247.594 21.9284C244.832 24.9474 242.642 28.5314 241.147 32.4759C239.653 36.4204 238.884 40.6481 238.884 44.9176V353.09C238.884 357.359 239.653 361.587 241.147 365.532C242.642 369.476 244.832 373.06 247.594 376.079C250.355 379.098 253.633 381.493 257.241 383.127C260.849 384.761 264.716 385.602 268.621 385.602H377.476C381.381 385.602 385.248 384.761 388.856 383.127C392.463 381.493 395.742 379.098 398.503 376.079C401.264 373.06 403.455 369.476 404.949 365.532C406.444 361.587 407.213 357.359 407.213 353.09V141.076H409.088V101.091Z" fill="#3F3D56"/>
<path d="M400.883 45.1392V352.863C400.883 356.051 400.309 359.209 399.192 362.154C398.076 365.1 396.44 367.776 394.377 370.031C392.315 372.285 389.866 374.073 387.172 375.292C384.477 376.511 381.589 377.138 378.673 377.137H269.294C266.378 377.138 263.491 376.51 260.797 375.29C258.103 374.07 255.655 372.282 253.593 370.028C251.532 367.774 249.896 365.098 248.78 362.153C247.665 359.207 247.091 356.051 247.091 352.863V45.1392C247.091 41.9514 247.665 38.7948 248.78 35.8495C249.896 32.9043 251.532 30.2283 253.593 27.9741C255.655 25.72 258.103 23.932 260.797 22.7122C263.491 21.4923 266.378 20.8646 269.294 20.8649H282.567C281.916 22.6164 281.668 24.5162 281.845 26.3971C282.023 28.278 282.621 30.0824 283.586 31.6516C284.551 33.2207 285.854 34.5066 287.38 35.3961C288.906 36.2856 290.609 36.7515 292.338 36.7528H354.698C356.429 36.7546 358.133 36.2907 359.661 35.402C361.189 34.5133 362.493 33.2272 363.458 31.6571C364.424 30.0871 365.021 28.2813 365.198 26.3992C365.374 24.517 365.124 22.6163 364.469 20.8649H378.673C381.589 20.8637 384.477 21.4907 387.172 22.7101C389.866 23.9295 392.315 25.7174 394.377 27.9716C396.44 30.2258 398.076 32.9021 399.192 35.8478C400.309 38.7935 400.883 41.9508 400.883 45.1392Z" fill="white"/>
<path d="M366.86 205.047H270.719C269.035 205.045 267.421 204.312 266.23 203.011C265.039 201.709 264.369 199.944 264.367 198.103V194.646C264.369 192.805 265.039 191.04 266.23 189.738C267.421 188.436 269.035 187.704 270.719 187.702H366.86C368.544 187.704 370.158 188.436 371.349 189.738C372.539 191.04 373.209 192.805 373.211 194.646V198.103C373.209 199.944 372.539 201.709 371.349 203.011C370.158 204.312 368.544 205.045 366.86 205.047Z" fill="#F0F0F0"/>
<path d="M366.86 234.847H270.719C269.035 234.845 267.421 234.112 266.23 232.811C265.039 231.509 264.369 229.744 264.367 227.903V224.446C264.369 222.605 265.039 220.84 266.23 219.538C267.421 218.236 269.035 217.504 270.719 217.502H366.86C368.544 217.504 370.158 218.236 371.349 219.538C372.539 220.84 373.209 222.605 373.211 224.446V227.903C373.209 229.744 372.539 231.509 371.349 232.811C370.158 234.112 368.544 234.845 366.86 234.847Z" fill="#F0F0F0"/>
<path d="M371.668 198.387H275.527C273.759 198.384 272.064 197.615 270.814 196.249C269.564 194.882 268.86 193.028 268.858 191.095V187.639C268.86 185.706 269.564 183.852 270.814 182.485C272.064 181.119 273.759 180.35 275.527 180.347H371.668C373.436 180.35 375.131 181.119 376.382 182.485C377.632 183.852 378.335 185.706 378.337 187.639V191.095C378.335 193.028 377.632 194.882 376.382 196.249C375.131 197.615 373.436 198.384 371.668 198.387ZM275.527 181.736C274.096 181.738 272.724 182.36 271.712 183.467C270.7 184.574 270.13 186.074 270.129 187.639V191.095C270.13 192.66 270.7 194.16 271.712 195.267C272.724 196.374 274.096 196.996 275.527 196.998H371.668C373.099 196.996 374.472 196.374 375.484 195.267C376.496 194.16 377.065 192.66 377.067 191.095V187.639C377.065 186.074 376.496 184.574 375.484 183.467C374.472 182.36 373.099 181.738 371.668 181.736H275.527Z" fill="#3F3D56"/>
<path d="M371.668 228.184H275.527C273.759 228.182 272.064 227.413 270.814 226.046C269.564 224.679 268.86 222.826 268.858 220.893V217.437C268.86 215.503 269.564 213.65 270.814 212.283C272.064 210.916 273.759 210.147 275.527 210.145H371.668C373.436 210.147 375.131 210.916 376.382 212.283C377.632 213.65 378.335 215.503 378.337 217.437V220.893C378.335 222.826 377.632 224.679 376.382 226.046C375.131 227.413 373.436 228.182 371.668 228.184ZM275.527 211.534C274.096 211.536 272.724 212.158 271.712 213.265C270.7 214.371 270.13 215.872 270.129 217.437V220.893C270.13 222.458 270.7 223.958 271.712 225.065C272.724 226.171 274.096 226.794 275.527 226.796H371.668C373.099 226.794 374.472 226.171 375.484 225.065C376.496 223.958 377.065 222.458 377.067 220.893V217.437C377.065 215.872 376.496 214.371 375.484 213.265C374.472 212.158 373.099 211.536 371.668 211.534H275.527Z" fill="#3F3D56"/>
<path d="M400.884 45.1392V112.073C391.156 114.871 380.97 115.193 371.111 113.012C361.252 110.831 351.982 106.207 344.014 99.4945C336.046 92.7822 329.592 84.161 325.15 74.2942C320.707 64.4274 318.394 53.5778 318.389 42.5804C318.389 40.6174 318.461 38.6749 318.605 36.7528H354.698C356.429 36.7546 358.133 36.2907 359.661 35.402C361.189 34.5133 362.493 33.2272 363.459 31.6571C364.424 30.0871 365.022 28.2813 365.198 26.3992C365.374 24.517 365.124 22.6163 364.47 20.8649H378.673C381.589 20.8637 384.477 21.4907 387.172 22.7101C389.867 23.9295 392.315 25.7174 394.378 27.9716C396.44 30.2258 398.076 32.9021 399.193 35.8478C400.309 38.7935 400.884 41.9508 400.884 45.1392Z" fill="#F0F0F0"/>
<path d="M302.357 372.957C302.357 374.368 302.309 375.762 302.205 377.137H269.294C266.378 377.138 263.491 376.51 260.797 375.29C258.103 374.07 255.655 372.282 253.593 370.028C251.532 367.774 249.896 365.098 248.78 362.153C247.665 359.208 247.091 356.051 247.091 352.863V319.948C253.99 318.967 261 319.605 267.656 321.819C274.311 324.034 280.459 327.773 285.688 332.789C290.918 337.805 295.109 343.982 297.984 350.908C300.858 357.835 302.349 365.351 302.357 372.957H302.357Z" fill="#98806E"/>
<path d="M36.9164 315.209C37.8412 315.653 38.8896 315.679 39.8315 315.28C40.7735 314.88 41.5321 314.089 41.9411 313.079L71.5895 239.614C72.2681 237.933 72.4754 236.07 72.1853 234.26C71.8952 232.45 71.1206 230.774 69.9596 229.446C68.7985 228.117 67.3032 227.194 65.6626 226.795C64.022 226.395 62.3099 226.537 60.7428 227.201H60.7427C58.9322 227.957 57.4172 229.375 56.4554 231.215C56.3024 231.506 56.1636 231.806 56.0397 232.113L26.3913 305.577C26.1892 306.078 26.0793 306.617 26.0679 307.164C26.0564 307.711 26.1437 308.255 26.3246 308.766C26.5055 309.276 26.7766 309.742 27.1223 310.138C27.468 310.533 27.8817 310.85 28.3396 311.071L36.9164 315.209Z" fill="#98806E"/>
<path d="M70.3707 269.77L41.0447 262.645L48.3032 241.651C49.5397 236.52 52.4174 232.043 56.4142 229.033C60.4111 226.023 65.2624 224.678 70.0882 225.244L70.3707 225.278L70.3707 269.77Z" fill="#2F2E41"/>
<path d="M129.606 316.258C128.744 316.256 127.9 315.982 127.177 315.467C126.455 314.952 125.884 314.22 125.534 313.358L95.8856 239.893C94.9426 237.556 94.855 234.912 95.6406 232.506C96.4262 230.1 98.0254 228.115 100.109 226.959C102.193 225.802 104.602 225.563 106.842 226.291C109.082 227.018 110.982 228.656 112.151 230.868V230.867C112.316 231.18 112.465 231.502 112.598 231.831L142.246 305.296C142.722 306.476 142.75 307.813 142.324 309.015C141.897 310.217 141.052 311.185 139.973 311.705L131.105 315.983L131.101 315.972C130.622 316.161 130.116 316.258 129.606 316.258Z" fill="#98806E"/>
<path d="M88.5941 291.026C87.5837 291.027 86.6151 291.466 85.9006 292.247C85.1862 293.028 84.7843 294.087 84.7832 295.192V380.615C84.7843 381.719 85.1862 382.778 85.9006 383.559C86.6151 384.34 87.5837 384.78 88.5941 384.781H97.9686C98.979 384.78 99.9477 384.34 100.662 383.559C101.377 382.778 101.778 381.719 101.78 380.615V295.192C101.778 294.087 101.377 293.028 100.662 292.247C99.9477 291.466 98.979 291.027 97.9686 291.026H88.5941Z" fill="#98806E"/>
<path d="M70.0519 291.026C69.0415 291.027 68.0728 291.466 67.3584 292.247C66.644 293.028 66.2421 294.087 66.241 295.192V380.615C66.2421 381.719 66.644 382.778 67.3584 383.559C68.0728 384.34 69.0415 384.78 70.0519 384.781H79.4265C80.4369 384.78 81.4056 384.34 82.12 383.559C82.8344 382.778 83.2363 381.719 83.2374 380.615V295.192C83.2363 294.087 82.8344 293.028 82.12 292.247C81.4056 291.466 80.4369 291.027 79.4265 291.026H70.0519Z" fill="#98806E"/>
<path d="M83.7301 201.534C101.62 201.534 116.123 185.678 116.123 166.119C116.123 146.56 101.62 130.704 83.7301 130.704C65.8401 130.704 51.3374 146.56 51.3374 166.119C51.3374 185.678 65.8401 201.534 83.7301 201.534Z" fill="#98806E"/>
<path d="M94.5102 180.986C96.6099 180.922 99.2232 180.843 101.236 179.235C101.836 178.736 102.328 178.101 102.68 177.372C103.031 176.644 103.232 175.84 103.269 175.018C103.305 174.433 103.218 173.848 103.013 173.306C102.808 172.765 102.491 172.283 102.087 171.898C101.036 170.926 99.5004 170.698 97.8457 171.23L99.5601 157.532L98.3016 157.344L96.2861 173.447L97.3371 172.92C98.5555 172.309 100.228 171.998 101.267 172.958C101.523 173.209 101.721 173.521 101.848 173.87C101.975 174.219 102.027 174.595 102 174.969C101.969 175.581 101.818 176.179 101.557 176.721C101.296 177.264 100.931 177.739 100.487 178.113C98.9204 179.364 96.8374 179.526 94.4749 179.598L94.5102 180.986Z" fill="#2F2E41"/>
<path d="M112.626 158.713H105.785V160.101H112.626V158.713Z" fill="#2F2E41"/>
<path d="M91.031 158.713H84.1895V160.101H91.031V158.713Z" fill="#2F2E41"/>
<path d="M115.827 316.685L104.169 223.633C104.043 222.636 103.592 221.721 102.898 221.059C102.204 220.397 101.314 220.032 100.393 220.032H91.5924C91.629 219.803 91.6481 219.571 91.6494 219.338V215.866C91.6494 214.761 91.2479 213.701 90.5332 212.92C89.8185 212.138 88.8492 211.699 87.8385 211.699H80.2167C79.206 211.699 78.2367 212.138 77.522 212.92C76.8074 213.701 76.4059 214.761 76.4058 215.866V219.338C76.4071 219.571 76.4262 219.803 76.4629 220.032H67.6626C66.7414 220.032 65.8515 220.397 65.1573 221.059C64.4632 221.721 64.0118 222.636 63.8867 223.633L52.2279 316.685C52.154 317.274 52.1965 317.874 52.3524 318.444C52.5083 319.014 52.774 319.541 53.1317 319.989C53.4894 320.437 53.9308 320.797 54.4261 321.043C54.9215 321.289 55.4593 321.417 56.0034 321.417H112.052C112.596 321.417 113.134 321.289 113.629 321.043C114.124 320.797 114.566 320.437 114.923 319.989C115.281 319.541 115.547 319.014 115.703 318.444C115.859 317.874 115.901 317.274 115.827 316.685Z" fill="#2F2E41"/>
<path d="M97.6841 269.773V225.282L97.9666 225.247C102.798 224.683 107.655 226.031 111.654 229.049C115.654 232.066 118.531 236.552 119.762 241.691L127.01 262.648L97.6841 269.773Z" fill="#2F2E41"/>
<path d="M82.099 202.641L59.6938 193.133C56.03 191.578 52.3458 190.071 48.7015 188.463C47.1405 187.868 45.7025 186.941 44.4704 185.736C43.3978 184.495 42.6668 182.948 42.361 181.273C41.584 177.682 41.7245 173.756 41.7799 170.092C41.8229 166.083 42.1246 162.082 42.6829 158.119C43.6613 150.673 45.9591 143.507 49.4474 137.023C55.7308 125.752 66.5566 117.271 79.0092 117.948C84.7742 118.261 90.5725 120.523 94.8558 124.832C95.3026 125.416 95.8039 125.947 96.3516 126.417C96.7323 126.574 97.1466 126.604 97.5429 126.505C98.0656 126.468 98.5888 126.44 99.1123 126.421C100.929 126.337 102.749 126.42 104.553 126.67C107.84 127.059 110.956 128.473 113.528 130.745C115.668 132.758 117.41 135.6 117.589 138.758C117.676 140.208 117.456 141.66 116.948 143.003C116.44 144.345 115.657 145.542 114.658 146.501C111.985 148.964 108.171 148.098 104.965 147.913L93.2187 147.232L87.2672 146.888C86.0418 146.817 86.0454 148.9 87.2672 148.971L103.086 149.887C105.628 150.034 108.247 150.395 110.792 150.228C112.746 150.132 114.613 149.311 116.084 147.901C117.428 146.551 118.429 144.843 118.99 142.945C119.551 141.046 119.652 139.021 119.283 137.067C118.468 132.805 115.567 129.279 112.165 127.182C107.538 124.328 102.011 124.055 96.8325 124.476L97.5061 124.782C91.6486 117.908 82.6763 115.006 74.2531 116.022C65.3595 117.094 57.4495 122.518 51.7662 129.936C45.4296 138.206 41.9766 148.518 40.6342 159.122C39.9356 164.847 39.7056 170.629 39.947 176.399C39.937 178.943 40.3352 181.47 41.1234 183.864C42.0228 186.195 43.6488 188.101 45.7125 189.243C48.0784 190.492 50.5107 191.585 52.9963 192.515L61.2509 196.018L77.4652 202.898L81.5924 204.65C82.7363 205.135 83.2318 203.122 82.099 202.641Z" fill="#2F2E41"/>
<path d="M46.8719 131.847C44.9248 131.847 43.0214 131.216 41.4024 130.033C39.7835 128.851 38.5216 127.17 37.7765 125.203C37.0314 123.236 36.8364 121.072 37.2163 118.984C37.5961 116.896 38.5338 114.978 39.9106 113.473C41.2874 111.968 43.0416 110.943 44.9513 110.527C46.861 110.112 48.8405 110.325 50.6394 111.14C52.4383 111.954 53.9758 113.334 55.0576 115.104C56.1394 116.874 56.7168 118.955 56.7168 121.084C56.7138 123.937 55.6757 126.673 53.83 128.691C51.9844 130.709 49.4821 131.844 46.8719 131.847ZM46.8719 112.404C45.3017 112.404 43.7667 112.913 42.461 113.867C41.1554 114.82 40.1378 116.176 39.5369 117.762C38.936 119.348 38.7788 121.093 39.0851 122.777C39.3914 124.461 40.1476 126.008 41.2579 127.222C42.3683 128.436 43.783 129.262 45.323 129.597C46.8631 129.932 48.4595 129.76 49.9102 129.103C51.3609 128.446 52.6009 127.334 53.4733 125.906C54.3457 124.479 54.8113 122.801 54.8113 121.084C54.809 118.783 53.9717 116.576 52.4833 114.949C50.9949 113.322 48.9769 112.406 46.8719 112.404Z" fill="#2F2E41"/>
<path d="M211.442 198.547L190.133 180.729L173.836 204.025L195.144 221.843L211.442 198.547Z" fill="#F0F0F0"/>
<path d="M84.6628 14.7822C81.296 14.7851 77.9754 13.926 74.9668 12.2737C71.9583 10.6215 69.3454 8.2219 67.3375 5.26725L54.8951 23.0537L92.2285 54.2716L120.782 13.4548L104.691 -4.95911e-05C103.081 4.36608 100.314 8.10631 96.7451 10.7403C93.1763 13.3743 88.9687 14.7819 84.6628 14.7822Z" fill="#F0F0F0"/>
<path d="M449.051 386H0.635151C0.466698 386 0.305145 385.927 0.186031 385.797C0.066917 385.666 0 385.49 0 385.306C0 385.121 0.066917 384.945 0.186031 384.815C0.305145 384.684 0.466698 384.611 0.635151 384.611H449.051C449.22 384.611 449.381 384.684 449.501 384.815C449.62 384.945 449.687 385.121 449.687 385.306C449.687 385.49 449.62 385.666 449.501 385.797C449.381 385.927 449.22 386 449.051 386Z" fill="#3F3D56"/>
<path d="M339.608 270.778H293.964C292.28 270.776 290.666 270.044 289.475 268.742C288.284 267.44 287.615 265.675 287.613 263.834V260.377C287.615 258.536 288.284 256.771 289.475 255.469C290.666 254.168 292.28 253.435 293.964 253.433H339.608C341.291 253.435 342.906 254.168 344.097 255.469C345.287 256.771 345.957 258.536 345.959 260.377V263.834C345.957 265.675 345.287 267.44 344.097 268.742C342.906 270.044 341.291 270.776 339.608 270.778Z" fill="#98806E"/>
<path d="M344.417 264.11H298.774C297.005 264.108 295.31 263.339 294.06 261.972C292.81 260.605 292.107 258.752 292.104 256.819V253.363C292.107 251.43 292.81 249.576 294.06 248.209C295.31 246.842 297.005 246.073 298.774 246.071H344.417C346.185 246.073 347.88 246.842 349.13 248.209C350.381 249.576 351.084 251.43 351.086 253.363V256.819C351.084 258.752 350.381 260.605 349.13 261.972C347.88 263.339 346.185 264.108 344.417 264.11ZM298.774 247.46C297.342 247.462 295.97 248.084 294.958 249.191C293.946 250.297 293.376 251.798 293.375 253.363V256.819C293.376 258.384 293.946 259.884 294.958 260.991C295.97 262.097 297.342 262.72 298.774 262.722H344.417C345.848 262.72 347.221 262.097 348.233 260.991C349.245 259.884 349.814 258.384 349.816 256.819V253.363C349.814 251.798 349.245 250.297 348.233 249.191C347.221 248.084 345.848 247.462 344.417 247.46H298.774Z" fill="#3F3D56"/>
</svg>
