<svg width="34" height="28" viewBox="0 0 34 28" fill="none" xmlns="http://www.w3.org/2000/svg">
<path d="M32.5284 12.6535L27.5144 8.09629V2.83199C27.5144 1.88013 26.6657 1.10873 25.6169 1.10873C24.5705 1.10873 23.7218 1.88013 23.7218 2.83199V4.64934L19.9885 1.25604C18.1427 -0.420671 14.9335 -0.417697 13.0919 1.25907L0.555059 12.6535C-0.18502 13.3275 -0.18502 14.418 0.555059 15.091C1.29547 15.7648 2.49768 15.7648 3.23783 15.091L15.7735 3.69626C16.1819 3.32704 16.9016 3.32704 17.3079 3.69517L29.8457 15.091C30.2175 15.4279 30.7022 15.5955 31.1867 15.5955C31.6723 15.5955 32.1578 15.4277 32.5285 15.091C33.2688 14.4181 33.2688 13.3275 32.5284 12.6535Z" fill="#F2F2F2"/>
<path d="M17.2004 6.9669C16.8362 6.63603 16.2464 6.63603 15.8833 6.9669L4.85581 16.9867C4.68171 17.1449 4.58301 17.3609 4.58301 17.5862V24.8943C4.58301 26.6092 6.11285 27.9996 7.99958 27.9996H13.4593V20.3147H19.6232V27.9996H25.083C26.9696 27.9996 28.4995 26.6092 28.4995 24.8944V17.5862C28.4995 17.3609 28.4016 17.1449 28.2267 16.9867L17.2004 6.9669Z" fill="#F2F2F2"/>
</svg>
