<svg width="33" height="26" viewBox="0 0 33 26" fill="none" xmlns="http://www.w3.org/2000/svg">
<path d="M32.6969 10.7246H22.7061C22.5387 10.7246 22.4033 10.8581 22.4033 11.0225V15.1932C22.4033 15.3577 22.5387 15.4911 22.7061 15.4911H32.6969C32.8643 15.4911 32.9997 15.3577 32.9997 15.1932V11.0225C32.9997 10.8581 32.8643 10.7246 32.6969 10.7246ZM25.2341 14.2822C24.5653 14.2822 24.023 13.7484 24.023 13.0906C24.023 12.4325 24.5653 11.899 25.2341 11.899C25.9028 11.899 26.4451 12.4325 26.4451 13.0906C26.4451 13.7484 25.9028 14.2822 25.2341 14.2822Z" fill="#F2F2F2"/>
<path d="M27.8533 17.2792V20.5532C27.8533 21.3745 27.3353 22.0457 26.5009 22.0457H7.61666H6.10047H1.68331C1.68149 22.0457 1.60217 22.0436 1.60035 22.0436C1.05146 22.0427 0.605506 21.3295 0 21.0959V21.7633C0 23.2418 1.37722 25.0247 2.87979 25.0247H5.6969H6.61636H28.9078C30.4103 25.0247 31.4866 23.8188 31.4866 22.3403V17.2792H27.8533Z" fill="#F2F2F2"/>
<path d="M22.8124 8.9387H26.13L26.1427 5.36381H4.36812C1.68179 5.36381 1.60247 5.35011 1.60035 5.35011C1.05146 5.34922 0.605506 5.20145 0 4.9679V18.0422C0 18.0904 0.0926424 18.1408 0.0926424 18.1908C0.0926424 19.0124 0.849222 20.2592 1.68361 20.2592C1.68482 20.2592 1.68573 20.2592 1.68664 20.2592H26.0368V17.2801H22.8124C21.6438 17.2801 20.5872 16.3182 20.5872 15.1682V11.0163C20.5872 9.86639 21.6435 8.9387 22.8124 8.9387Z" fill="#F2F2F2"/>
<path d="M20.5874 2.346V0H12.1104V2.346C12.1104 2.51075 12.424 2.68115 12.5911 2.68115H20.4551C20.6222 2.68115 20.5874 2.51075 20.5874 2.346Z" fill="#F2F2F2"/>
<path d="M22.4038 0H27.2479L29.0644 0.100693C30.5781 0.490652 31.4864 1.75377 31.4864 3.25045V8.93718H27.8534V5.03819C27.8534 4.21686 27.3354 3.57487 26.501 3.57487H22.1831C22.4286 3.27697 22.4038 2.79406 22.4038 2.34601V0Z" fill="#F2F2F2"/>
<path d="M10.2936 0V2.34598C10.2936 2.79403 10.6175 3.27693 10.8631 3.57483H1.68664H1.68361C0.849222 3.57483 0.0920368 2.89353 0.0920368 2.07191C0.0920368 2.02484 0 1.96556 0 1.92028V0.000292978L3.4859 0H10.2936Z" fill="#F2F2F2"/>
</svg>
