<svg width="28" height="28" viewBox="0 0 28 28" fill="none" xmlns="http://www.w3.org/2000/svg">
<path d="M13.9373 13.5582C17.5702 13.5582 20.5153 10.5231 20.5153 6.77912C20.5153 3.03512 17.5702 0 13.9373 0C10.3044 0 7.35938 3.03512 7.35938 6.77912C7.35938 10.5231 10.3044 13.5582 13.9373 13.5582Z" fill="#F2F2F2"/>
<path d="M21.7619 14.6077C21.6582 14.5351 21.4495 14.3954 21.4495 14.3954C19.7681 16.8012 17.0268 18.3705 13.9364 18.3705C10.8456 18.3705 8.10404 16.8008 6.42266 14.3945C6.42266 14.3945 6.24726 14.5129 6.16016 14.5733C2.44418 17.1529 0 21.5293 0 26.4939V28H27.8727V26.4939C27.8727 21.5513 25.4501 17.1918 21.7619 14.6077Z" fill="#F2F2F2"/>
</svg>
